<?xml version="1.0" encoding="utf-8"?><!DOCTYPE svg PUBLIC "-//W3C//DTD SVG 1.1//EN" "http://www.w3.org/Graphics/SVG/1.1/DTD/svg11.dtd"><svg xmlns="http://www.w3.org/2000/svg" width="512" height="512" viewBox="0 0 21 21" shape-rendering="crispEdges"><path stroke="#ffffff" d="M0 0.5h7m2 0h2m3 0h7M0 1.5h1m5 0h1m2 0h4m1 0h1m5 0h1M0 2.5h1m1 0h3m1 0h1m2 0h1m1 0h1m2 0h1m1 0h3m1 0h1M0 3.5h1m1 0h3m1 0h1m1 0h1m1 0h2m2 0h1m1 0h3m1 0h1M0 4.5h1m1 0h3m1 0h1m1 0h1m1 0h1m3 0h1m1 0h3m1 0h1M0 5.5h1m5 0h1m3 0h1m1 0h1m1 0h1m5 0h1M0 6.5h7m1 0h1m1 0h1m1 0h1m1 0h7M9 7.5h3M0 8.5h2m3 0h3m1 0h1m1 0h1m4 0h2M2 9.5h1m4 0h2m1 0h1m2 0h1m3 0h3M0 10.5h1m2 0h1m2 0h1m1 0h8m2 0h2M1 11.5h1m2 0h1m2 0h1m1 0h3m3 0h4M3 12.5h1m1 0h3m1 0h1m1 0h2m6 0h1M8 13.5h2m6 0h3m1 0h1M0 14.5h7m1 0h5m2 0h1m2 0h2M0 15.5h1m5 0h1m1 0h1m1 0h1m2 0h2m2 0h2m1 0h1M0 16.5h1m1 0h3m1 0h1m2 0h3m1 0h5M0 17.5h1m1 0h3m1 0h1m2 0h2m3 0h3m1 0h2M0 18.5h1m1 0h3m1 0h1m4 0h10M0 19.5h1m5 0h1m1 0h1m2 0h1m1 0h1m1 0h4M0 20.5h7m1 0h2m5 0h1m1 0h1m1 0h1"/></svg>
